# xmcd
#
# Track frame offsets:
#	150
#	20712
#	39027
#	52902
#	78077
#	98050
#	113912
#	135385
#	149750
#	171305
#	193812
#	216692
#	238477
#	259372
#	278282
#
# Disc length: 4106 seconds
#
# Revision: 1
# Processed by: cddbd v1.4b42PL0 Copyright (c) Steve Scherf et al.
# Submitted via: audiograbber 1.80
#
DISCID=dc10080f
DTITLE=Neville Brothers - Greatest Hits
DYEAR=1900
DGENRE=
TTITLE0=Brother Blood
TTITLE1=Yellow Moon
TTITLE2=Louisiana
TTITLE3=Brother John- Iko Iko
TTITLE4=Everybody Plays The Fool
TTITLE5=Sister Rosa
TTITLE6=Fly Like An Eagle
TTITLE7=Close Your Eyes
TTITLE8=Brother Jake
TTITLE9=Use Me
TTITLE10=Bird On A Wire
TTITLE11=Family Groove
TTITLE12=Don't Take Away My Heaven
TTITLE13=My Blood
TTITLE14=With God On Our Side
EXTD=
EXTT0=
EXTT1=
EXTT2=
EXTT3=
EXTT4=
EXTT5=
EXTT6=
EXTT7=
EXTT8=
EXTT9=
EXTT10=
EXTT11=
EXTT12=
EXTT13=
EXTT14=
PLAYORDER=
